<svg width="360" height="800" viewBox="0 0 360 800" fill="none" xmlns="http://www.w3.org/2000/svg">
<g style="mix-blend-mode:multiply" opacity="0.75" filter="url(#filter0_d_198_18722)">
<path d="M-151.111 486.175C-141.422 286.37 -72.3661 315.876 1 281.376C207.634 227.376 301.53 209.588 229.03 486.175C154.03 810.588 202.578 832.371 -22.8662 802.871C-174.922 752.871 -164.112 754.262 -151.111 486.175Z" fill="#F2E9E9"/>
</g>
<path d="M448.689 619.695C397.72 814.902 410.326 787.774 291.946 850.287C114.376 921.057 122.049 765.33 122.049 637.978C122.049 510.625 233.877 303 320.445 303C407.012 303 482.669 365.513 448.689 619.695Z" fill="#FFF1F1"/>
<g style="mix-blend-mode:multiply" opacity="0.75" filter="url(#filter1_d_198_18722)">
<path d="M-222.036 496.423C-201.036 422.423 -216.045 337.496 -58.0448 235.996C185.86 85.9965 232.464 364.923 200.464 514.496C108.964 859.923 159.408 860.692 -66.0362 831.192C-218.092 781.192 -295.311 754.629 -222.036 496.423Z" fill="#F2E9E9"/>
</g>
<g filter="url(#filter2_d_198_18722)">
<path d="M478.689 509.695C427.72 704.902 440.326 677.774 321.946 740.287C144.376 811.057 152.049 655.33 152.049 527.978C152.049 400.625 263.877 193 350.445 193C437.012 193 512.669 255.513 478.689 509.695Z" fill="#FFF1F1"/>
</g>
<g style="mix-blend-mode:multiply" filter="url(#filter3_d_198_18722)">
<path d="M496 134.155C496 250.668 354.522 345.121 180 345.121C-80.0258 362.972 -136 250.668 -136 134.155C-136 17.642 -91.7295 45.9824 172.367 -60.5824C445.623 -150.378 496 17.642 496 134.155Z" fill="#FFF1F1"/>
</g>
<path d="M10.742 24.264C10.742 22.6493 11.0313 21.3847 11.61 20.47C12.198 19.5553 13.1687 19.098 14.522 19.098C15.8753 19.098 16.8413 19.5553 17.42 20.47C18.008 21.3847 18.302 22.6493 18.302 24.264C18.302 25.888 18.008 27.162 17.42 28.086C16.8413 29.01 15.8753 29.472 14.522 29.472C13.1687 29.472 12.198 29.01 11.61 28.086C11.0313 27.162 10.742 25.888 10.742 24.264ZM16.37 24.264C16.37 23.5733 16.3233 22.9947 16.23 22.528C16.146 22.052 15.9687 21.6647 15.698 21.366C15.4367 21.0673 15.0447 20.918 14.522 20.918C13.9993 20.918 13.6027 21.0673 13.332 21.366C13.0707 21.6647 12.8933 22.052 12.8 22.528C12.716 22.9947 12.674 23.5733 12.674 24.264C12.674 24.9733 12.716 25.5707 12.8 26.056C12.884 26.532 13.0613 26.9193 13.332 27.218C13.6027 27.5073 13.9993 27.652 14.522 27.652C15.0447 27.652 15.4413 27.5073 15.712 27.218C15.9827 26.9193 16.16 26.532 16.244 26.056C16.328 25.5707 16.37 24.9733 16.37 24.264ZM22.2008 26.63C22.2754 27.0407 22.4434 27.358 22.7048 27.582C22.9754 27.7967 23.3348 27.904 23.7828 27.904C24.3614 27.904 24.7814 27.666 25.0428 27.19C25.3041 26.7047 25.4348 25.8927 25.4348 24.754C25.2201 25.0527 24.9168 25.286 24.5248 25.454C24.1421 25.622 23.7268 25.706 23.2788 25.706C22.6814 25.706 22.1401 25.5847 21.6548 25.342C21.1788 25.09 20.8008 24.7213 20.5208 24.236C20.2408 23.7413 20.1008 23.144 20.1008 22.444C20.1008 21.408 20.4088 20.5867 21.0248 19.98C21.6408 19.364 22.4808 19.056 23.5448 19.056C24.8701 19.056 25.8034 19.4807 26.3448 20.33C26.8954 21.1793 27.1708 22.458 27.1708 24.166C27.1708 25.3793 27.0634 26.3733 26.8488 27.148C26.6434 27.9227 26.2841 28.5107 25.7708 28.912C25.2668 29.3133 24.5761 29.514 23.6988 29.514C23.0081 29.514 22.4201 29.3833 21.9348 29.122C21.4494 28.8513 21.0761 28.5013 20.8148 28.072C20.5628 27.6333 20.4181 27.1527 20.3808 26.63H22.2008ZM23.6848 24.11C24.1701 24.11 24.5528 23.9607 24.8328 23.662C25.1128 23.3633 25.2528 22.962 25.2528 22.458C25.2528 21.9073 25.1034 21.4827 24.8048 21.184C24.5154 20.876 24.1188 20.722 23.6148 20.722C23.1108 20.722 22.7094 20.8807 22.4108 21.198C22.1214 21.506 21.9768 21.9167 21.9768 22.43C21.9768 22.9247 22.1168 23.3307 22.3968 23.648C22.6861 23.956 23.1154 24.11 23.6848 24.11ZM29.9285 29.598C29.5738 29.598 29.2798 29.4907 29.0465 29.276C28.8225 29.052 28.7105 28.7767 28.7105 28.45C28.7105 28.1233 28.8225 27.8527 29.0465 27.638C29.2798 27.414 29.5738 27.302 29.9285 27.302C30.2738 27.302 30.5585 27.414 30.7825 27.638C31.0065 27.8527 31.1185 28.1233 31.1185 28.45C31.1185 28.7767 31.0065 29.052 30.7825 29.276C30.5585 29.4907 30.2738 29.598 29.9285 29.598ZM29.9285 23.802C29.5738 23.802 29.2798 23.6947 29.0465 23.48C28.8225 23.256 28.7105 22.9807 28.7105 22.654C28.7105 22.3273 28.8225 22.0567 29.0465 21.842C29.2798 21.618 29.5738 21.506 29.9285 21.506C30.2738 21.506 30.5585 21.618 30.7825 21.842C31.0065 22.0567 31.1185 22.3273 31.1185 22.654C31.1185 22.9807 31.0065 23.256 30.7825 23.48C30.5585 23.6947 30.2738 23.802 29.9285 23.802ZM32.5702 27.512V25.972L37.1482 19.42H39.4302V25.804H40.6622V27.512H39.4302V29.5H37.4702V27.512H32.5702ZM37.5962 21.52L34.7262 25.804H37.5962V21.52ZM41.812 21.1V19.294H45.186V29.5H43.17V21.1H41.812Z" fill="#404040"/>
<path d="M313.734 21.2205C314.038 21.4297 314.086 21.8568 313.855 22.1447L307.686 29.8423C307.163 30.497 306.17 30.497 305.647 29.8423L299.478 22.1447C299.248 21.8568 299.295 21.4296 299.599 21.2201C300.674 20.4777 303.217 19 306.667 19C310.112 19 312.658 20.4782 313.734 21.2205Z" fill="#404040"/>
<path d="M348.667 20.6667C348.667 20.1144 348.219 19.6667 347.667 19.6667H346.667V18.3334H342.667V19.6667H341.667C341.114 19.6667 340.667 20.1144 340.667 20.6667V30.6667C340.667 31.219 341.114 31.6667 341.667 31.6667H347.667C348.219 31.6667 348.667 31.219 348.667 30.6667V20.6667Z" fill="#404040"/>
<path d="M329.529 19.4714C329.949 19.0515 330.667 19.3489 330.667 19.9429V30.3334C330.667 31.0698 330.07 31.6667 329.333 31.6667H318.943C318.349 31.6667 318.051 30.9486 318.471 30.5287L329.529 19.4714Z" fill="#404040"/>
<g style="mix-blend-mode:darken" opacity="0.75" filter="url(#filter4_d_198_18722)">
<path d="M848 402.155C848 518.668 706.522 613.121 532 613.121C271.974 630.972 216 518.668 216 402.155C216 285.642 260.271 313.982 524.367 207.418C797.623 117.622 848 285.642 848 402.155Z" fill="#FFF1F1"/>
</g>
<defs>
<filter id="filter0_d_198_18722" x="-162" y="249" width="419.308" height="571.414" filterUnits="userSpaceOnUse" color-interpolation-filters="sRGB">
<feFlood flood-opacity="0" result="BackgroundImageFix"/>
<feColorMatrix in="SourceAlpha" type="matrix" values="0 0 0 0 0 0 0 0 0 0 0 0 0 0 0 0 0 0 127 0" result="hardAlpha"/>
<feOffset dy="4"/>
<feGaussianBlur stdDeviation="2"/>
<feComposite in2="hardAlpha" operator="out"/>
<feColorMatrix type="matrix" values="0 0 0 0 0 0 0 0 0 0 0 0 0 0 0 0 0 0 0.25 0"/>
<feBlend mode="normal" in2="BackgroundImageFix" result="effect1_dropShadow_198_18722"/>
<feBlend mode="normal" in="SourceGraphic" in2="effect1_dropShadow_198_18722" result="shape"/>
</filter>
<filter id="filter1_d_198_18722" x="-254" y="193" width="467.411" height="657.926" filterUnits="userSpaceOnUse" color-interpolation-filters="sRGB">
<feFlood flood-opacity="0" result="BackgroundImageFix"/>
<feColorMatrix in="SourceAlpha" type="matrix" values="0 0 0 0 0 0 0 0 0 0 0 0 0 0 0 0 0 0 127 0" result="hardAlpha"/>
<feOffset dy="4"/>
<feGaussianBlur stdDeviation="2"/>
<feComposite in2="hardAlpha" operator="out"/>
<feColorMatrix type="matrix" values="0 0 0 0 0 0 0 0 0 0 0 0 0 0 0 0 0 0 0.25 0"/>
<feBlend mode="normal" in2="BackgroundImageFix" result="effect1_dropShadow_198_18722"/>
<feBlend mode="normal" in="SourceGraphic" in2="effect1_dropShadow_198_18722" result="shape"/>
</filter>
<filter id="filter2_d_198_18722" x="148" y="193" width="343" height="573" filterUnits="userSpaceOnUse" color-interpolation-filters="sRGB">
<feFlood flood-opacity="0" result="BackgroundImageFix"/>
<feColorMatrix in="SourceAlpha" type="matrix" values="0 0 0 0 0 0 0 0 0 0 0 0 0 0 0 0 0 0 127 0" result="hardAlpha"/>
<feOffset dy="4"/>
<feGaussianBlur stdDeviation="2"/>
<feComposite in2="hardAlpha" operator="out"/>
<feColorMatrix type="matrix" values="0 0 0 0 0 0 0 0 0 0 0 0 0 0 0 0 0 0 0.25 0"/>
<feBlend mode="normal" in2="BackgroundImageFix" result="effect1_dropShadow_198_18722"/>
<feBlend mode="normal" in="SourceGraphic" in2="effect1_dropShadow_198_18722" result="shape"/>
</filter>
<filter id="filter3_d_198_18722" x="-140" y="-86" width="640" height="441" filterUnits="userSpaceOnUse" color-interpolation-filters="sRGB">
<feFlood flood-opacity="0" result="BackgroundImageFix"/>
<feColorMatrix in="SourceAlpha" type="matrix" values="0 0 0 0 0 0 0 0 0 0 0 0 0 0 0 0 0 0 127 0" result="hardAlpha"/>
<feOffset dy="4"/>
<feGaussianBlur stdDeviation="2"/>
<feComposite in2="hardAlpha" operator="out"/>
<feColorMatrix type="matrix" values="0 0 0 0 0 0 0 0 0 0 0 0 0 0 0 0 0 0 0.25 0"/>
<feBlend mode="normal" in2="BackgroundImageFix" result="effect1_dropShadow_198_18722"/>
<feBlend mode="normal" in="SourceGraphic" in2="effect1_dropShadow_198_18722" result="shape"/>
</filter>
<filter id="filter4_d_198_18722" x="212" y="182" width="640" height="441" filterUnits="userSpaceOnUse" color-interpolation-filters="sRGB">
<feFlood flood-opacity="0" result="BackgroundImageFix"/>
<feColorMatrix in="SourceAlpha" type="matrix" values="0 0 0 0 0 0 0 0 0 0 0 0 0 0 0 0 0 0 127 0" result="hardAlpha"/>
<feOffset dy="4"/>
<feGaussianBlur stdDeviation="2"/>
<feComposite in2="hardAlpha" operator="out"/>
<feColorMatrix type="matrix" values="0 0 0 0 0 0 0 0 0 0 0 0 0 0 0 0 0 0 0.25 0"/>
<feBlend mode="normal" in2="BackgroundImageFix" result="effect1_dropShadow_198_18722"/>
<feBlend mode="normal" in="SourceGraphic" in2="effect1_dropShadow_198_18722" result="shape"/>
</filter>
</defs>
</svg>
