<svg width="208" height="175" viewBox="0 0 208 175" fill="none" xmlns="http://www.w3.org/2000/svg">
<rect x="44" width="120" height="120" rx="18" fill="#994C4C"/>
<ellipse cx="102.966" cy="58.9744" rx="37.2414" ry="37.4359" fill="#FFF1F1"/>
<path d="M30.5139 142.818V169H28.9542L12.2582 145.72H12.1048V169H10.5067V142.818H12.0792L28.7752 166.124H28.9286V142.818H30.5139ZM44.8192 169.409C43.1999 169.409 41.7596 168.974 40.4982 168.105C39.2369 167.227 38.244 166.021 37.5195 164.487C36.7951 162.953 36.4329 161.206 36.4329 159.246C36.4329 157.277 36.7951 155.53 37.5195 154.004C38.244 152.47 39.2369 151.264 40.4982 150.386C41.7596 149.509 43.1999 149.07 44.8192 149.07C46.4386 149.07 47.8789 149.509 49.1403 150.386C50.4016 151.264 51.3945 152.47 52.119 154.004C52.8434 155.538 53.2056 157.286 53.2056 159.246C53.2056 161.206 52.8434 162.953 52.119 164.487C51.3945 166.021 50.4016 167.227 49.1403 168.105C47.8789 168.974 46.4386 169.409 44.8192 169.409ZM44.8192 167.964C46.1914 167.964 47.3888 167.577 48.4116 166.801C49.4428 166.026 50.2397 164.977 50.8022 163.656C51.3732 162.335 51.6587 160.865 51.6587 159.246C51.6587 157.626 51.3732 156.161 50.8022 154.848C50.2312 153.527 49.4343 152.479 48.4116 151.703C47.3888 150.919 46.1914 150.527 44.8192 150.527C43.4471 150.527 42.2496 150.919 41.2269 151.703C40.2042 152.479 39.4073 153.527 38.8363 154.848C38.2653 156.161 37.9798 157.626 37.9798 159.246C37.9798 160.865 38.261 162.335 38.8235 163.656C39.3945 164.977 40.1914 166.026 41.2141 166.801C42.2454 167.577 43.4471 167.964 44.8192 167.964ZM65.5199 149.364V150.757H56.9418V149.364H65.5199ZM59.8438 144.659H61.3906V164.359C61.3906 165.161 61.544 165.817 61.8509 166.328C62.1662 166.831 62.5753 167.206 63.0781 167.453C63.5895 167.692 64.1349 167.811 64.7145 167.811C64.9957 167.811 65.2386 167.79 65.4432 167.747C65.6563 167.705 65.8565 167.649 66.044 167.581L66.4276 169C66.1889 169.085 65.9247 169.158 65.6349 169.217C65.3452 169.286 65.0043 169.32 64.6122 169.32C63.794 169.32 63.0185 169.136 62.2855 168.77C61.5611 168.403 60.973 167.871 60.5213 167.172C60.0696 166.473 59.8438 165.629 59.8438 164.641V144.659ZM71.3814 169V149.364H72.9283V169H71.3814ZM72.1612 145.886C71.8203 145.886 71.522 145.767 71.2663 145.528C71.0192 145.29 70.8956 145 70.8956 144.659C70.8956 144.318 71.0192 144.028 71.2663 143.79C71.5135 143.551 71.8118 143.432 72.1612 143.432C72.5021 143.432 72.7962 143.551 73.0433 143.79C73.299 144.028 73.4268 144.318 73.4268 144.659C73.4268 145 73.3033 145.29 73.0561 145.528C72.8089 145.767 72.5107 145.886 72.1612 145.886ZM89.4197 157.034V158.517H79.0902V157.034H89.4197ZM96.0771 169V142.818H97.6751V155.155H113.451V142.818H115.049V169H113.451V156.638H97.6751V169H96.0771ZM129.728 169.409C127.955 169.409 126.413 168.97 125.1 168.092C123.788 167.214 122.773 166.013 122.058 164.487C121.342 162.962 120.984 161.223 120.984 159.271C120.984 157.311 121.342 155.564 122.058 154.03C122.782 152.496 123.775 151.286 125.036 150.399C126.298 149.513 127.738 149.07 129.357 149.07C130.457 149.07 131.496 149.291 132.477 149.734C133.465 150.169 134.335 150.8 135.085 151.626C135.843 152.453 136.435 153.45 136.862 154.618C137.296 155.786 137.513 157.098 137.513 158.555V159.527H121.968V158.108H135.954C135.954 156.685 135.664 155.402 135.085 154.26C134.505 153.118 133.717 152.21 132.719 151.537C131.722 150.864 130.602 150.527 129.357 150.527C128.053 150.527 126.89 150.893 125.867 151.626C124.853 152.351 124.048 153.331 123.451 154.567C122.863 155.803 122.556 157.183 122.531 158.709V159.348C122.531 160.984 122.816 162.455 123.387 163.759C123.967 165.054 124.793 166.081 125.867 166.839C126.941 167.589 128.228 167.964 129.728 167.964C130.802 167.964 131.718 167.786 132.477 167.428C133.244 167.061 133.87 166.618 134.356 166.098C134.842 165.578 135.208 165.075 135.455 164.589L136.874 165.165C136.576 165.821 136.112 166.477 135.481 167.134C134.859 167.781 134.066 168.322 133.103 168.757C132.148 169.192 131.023 169.409 129.728 169.409ZM148.086 169.422C146.952 169.422 145.913 169.196 144.967 168.744C144.029 168.293 143.275 167.632 142.704 166.763C142.141 165.893 141.86 164.837 141.86 163.592C141.86 162.774 142.005 162.054 142.295 161.432C142.585 160.81 143.032 160.273 143.637 159.821C144.242 159.369 145.018 158.999 145.964 158.709C146.91 158.411 148.039 158.18 149.352 158.018C150.349 157.899 151.239 157.784 152.023 157.673C152.808 157.554 153.421 157.371 153.864 157.124C154.316 156.876 154.542 156.501 154.542 155.999V155.18C154.542 153.749 154.09 152.611 153.187 151.767C152.283 150.923 151.039 150.501 149.454 150.501C148.048 150.501 146.863 150.812 145.9 151.435C144.945 152.048 144.276 152.841 143.893 153.812L142.423 153.263C142.798 152.325 143.339 151.545 144.046 150.923C144.762 150.301 145.58 149.837 146.501 149.53C147.43 149.223 148.401 149.07 149.415 149.07C150.293 149.07 151.129 149.193 151.921 149.44C152.722 149.688 153.434 150.062 154.056 150.565C154.687 151.068 155.185 151.712 155.552 152.496C155.918 153.271 156.102 154.2 156.102 155.283V169H154.542V165.459H154.427C154.086 166.192 153.617 166.861 153.021 167.466C152.433 168.062 151.721 168.54 150.886 168.898C150.059 169.247 149.126 169.422 148.086 169.422ZM148.239 167.977C149.467 167.977 150.553 167.679 151.499 167.082C152.454 166.477 153.2 165.651 153.737 164.602C154.273 163.554 154.542 162.365 154.542 161.036V158.146C154.346 158.317 154.06 158.47 153.685 158.607C153.319 158.734 152.901 158.849 152.433 158.952C151.972 159.045 151.487 159.131 150.975 159.207C150.472 159.276 149.982 159.339 149.505 159.399C148.073 159.57 146.906 159.834 146.002 160.192C145.107 160.541 144.451 161.001 144.033 161.572C143.624 162.143 143.42 162.834 143.42 163.643C143.42 164.982 143.88 166.038 144.8 166.814C145.721 167.589 146.867 167.977 148.239 167.977ZM164.2 142.818V169H162.641V142.818H164.2ZM177.598 149.364V150.757H169.02V149.364H177.598ZM171.922 144.659H173.469V164.359C173.469 165.161 173.622 165.817 173.929 166.328C174.244 166.831 174.653 167.206 175.156 167.453C175.668 167.692 176.213 167.811 176.793 167.811C177.074 167.811 177.317 167.79 177.521 167.747C177.734 167.705 177.935 167.649 178.122 167.581L178.506 169C178.267 169.085 178.003 169.158 177.713 169.217C177.423 169.286 177.082 169.32 176.69 169.32C175.872 169.32 175.097 169.136 174.364 168.77C173.639 168.403 173.051 167.871 172.599 167.172C172.148 166.473 171.922 165.629 171.922 164.641V144.659ZM185.364 156.267V169H183.805V142.818H185.364V152.47H185.518C185.978 151.447 186.711 150.634 187.717 150.028C188.731 149.415 189.945 149.108 191.36 149.108C192.681 149.108 193.844 149.389 194.85 149.952C195.856 150.506 196.64 151.303 197.202 152.342C197.773 153.374 198.059 154.609 198.059 156.05V169H196.512V156.114C196.512 154.435 196.013 153.088 195.016 152.074C194.019 151.06 192.702 150.553 191.066 150.553C189.967 150.553 188.987 150.791 188.126 151.268C187.265 151.746 186.587 152.415 186.093 153.276C185.607 154.128 185.364 155.125 185.364 156.267Z" fill="#5B1616"/>
</svg>
