<svg width="146" height="397" viewBox="0 0 146 397" fill="none" xmlns="http://www.w3.org/2000/svg">
<path fill-rule="evenodd" clip-rule="evenodd" d="M89.0511 33.7912C89.2625 33.0238 89.4686 32.2704 89.5727 31.478C89.8817 29.1532 89.8887 26.7786 90.0297 24.4392C90.1654 22.186 90.4426 19.9745 90.2817 17.7115C90.197 16.5208 90.0449 15.2631 89.5816 14.1618C89.0695 12.9478 88.1082 12.1816 87.2422 11.2653C86.1642 10.126 85.4885 8.64046 84.4163 7.49912C83.3718 6.38724 81.9751 5.74746 80.8257 4.77293C79.0253 3.24483 77.5261 1.52014 75.063 1.62529C73.2049 1.70645 71.4082 2.35656 69.5559 2.50901C67.7536 2.65874 65.9854 2.27102 64.2122 2.00076C62.3166 1.71166 60.7195 1.73421 59.2237 3.10242C57.7724 4.42908 56.4815 5.76628 54.896 6.93268C53.7667 7.76122 52.6149 8.58589 51.7058 9.68972C50.8237 10.7593 50.1374 12.0772 49.9372 13.4944C49.7465 14.8498 50.092 16.1898 50.1271 17.5419C50.1695 19.1469 49.7444 20.7188 49.7278 22.3236C49.7169 23.3337 49.897 24.3192 50.1529 25.2903C50.737 27.5126 51.2921 29.6153 51.6386 31.9025C52.7465 39.2219 54.2372 44.0135 58.8132 49.6122C61.853 53.3311 65.9514 56.5798 70.5996 56.5917C75.1367 56.601 79.2687 53.4479 81.8468 49.4823C84.4236 45.5179 87.777 38.4096 89.0511 33.7912Z" fill="black"/>
<path d="M106.605 63.9489L108.793 64.6038C119.871 67.8797 122.479 78.5123 120.893 91.6563C120.949 93.7789 121.279 95.8331 121.883 97.8188C130.049 118.472 125.794 119.71 130.622 137.152C130.689 137.364 130.688 137.506 130.687 137.718C132.449 140.845 131.598 168.426 130.057 185.532C130.124 185.886 130.122 186.169 130.051 186.522C129.398 192.742 129.265 192.033 130.006 194.161C130.746 196.29 133.626 207.349 133.69 207.986C133.821 208.978 133.815 209.968 133.673 210.886C133.106 213.994 132.535 217.809 131.3 218.152C130.604 220.057 129.5 221.321 128.813 221.669C127.156 223.848 126.668 225.188 125.985 224.899C125.302 224.61 125.033 223.759 125.311 223.054C125.311 223.054 125.311 223.054 125.311 222.983C125.591 222.066 125.244 222.77 124.69 223.827C123.997 225.094 123.373 226.433 122.891 226.712C120.912 225.493 122.229 222.887 123.406 220.916C124.097 219.79 123.061 221.196 121.816 223.308C120.708 225.208 119.602 226.897 119.329 226.682C116.737 224.821 120.059 219.261 120.611 218.629C120.553 216.789 120.564 215.021 120.643 213.182C120.103 211.975 119.704 209.921 119.448 206.877C119.167 208.077 118.749 209.205 118.331 210.333C117.711 211.036 119.386 217.275 114.728 217.236C114.742 214.831 114.762 211.506 114.776 209.243C114.787 207.404 115.363 202.669 115.374 200.83C115.385 198.991 119.387 194.214 119.594 194.004C119.748 191.105 119.629 188.133 119.372 185.23C119.373 185.159 119.374 185.018 119.443 184.948C118.594 178.008 116.513 170.917 115.1 166.52C113.688 162.122 111.137 153.541 111.653 147.462C111.585 147.249 111.519 146.966 111.588 146.754C111.531 144.844 111.749 142.865 112.308 141.03C106.952 131.648 104.002 121.013 103.862 110.118C102.172 117.743 97.1803 127.605 97.1451 133.476C97.1027 140.549 99.1237 146.225 99.0957 150.894C99.0788 153.723 98.3015 157.678 96.7631 162.9C99.4692 168.582 110.608 195.98 112.32 218.913C113.968 241.068 114.29 255.926 112.007 271.045C117.035 278.019 119.028 299.682 115.463 322.995C114.11 331.685 115.777 350.586 117.295 360.219C118.813 369.852 108.469 369.836 104.855 366.976C102.81 365.332 99.5515 360.424 101.01 357.112C100.916 349.966 98.7174 328.161 93.3312 312.482C90.5042 304.112 90.7227 290.532 91.1097 283.107C91.0438 282.682 90.9093 282.257 90.8434 281.832C90.0455 277.793 90.5327 276.524 90.6152 274.19C88.392 267.947 82.5654 257.146 80.4303 247.649C78.6291 239.57 76.9714 230.431 75.3199 220.231L73.6079 220.145C72.9752 222.828 72.4792 225.583 72.1197 228.409C71.6016 234.842 72.3591 245.601 62.7993 274.736C62.7747 278.838 64.0047 279.344 63.4955 284.291C63.3496 285.775 63.1356 287.188 62.7842 288.671C64.7862 297.53 66.7521 312.401 60.4379 325.789C56.274 334.738 53.8694 347.309 55.2668 354.182C57.0287 357.38 56.163 364.659 54.3025 366.483C50.9268 369.638 37.9925 367.478 39.6279 357.517C41.2632 347.557 41.3536 332.491 38.6844 320.655C36.2812 310.166 37.1783 297.653 39.3824 284.231C39.3854 283.736 39.3884 283.24 39.3918 282.675C39.4066 280.199 39.4887 277.936 39.6384 275.815C38.5053 270.571 37.0246 266.173 35.5488 249.537C34.7777 241.042 35.7792 233.976 35.6216 225.982C36.3253 200.027 40.9641 169.012 43.2616 162.877L43.3986 162.878C43.0735 159.975 42.8858 157.002 42.8347 154.101C42.8563 150.494 45.0265 142.731 45.7548 135.522C46.335 130.151 43.3554 124.396 41.4054 118.296C40.6745 125.93 36.9973 133.68 32.233 139.936C37.3658 163.605 28.4669 173.929 25.8884 192.653C26.2288 193.01 26.5007 193.366 26.7726 193.722C29.6943 197.708 30.1424 202.946 28.2547 209.297C29.201 211.427 29.8788 212.635 30.2873 213.063C31.4458 214.063 32.4087 213.434 32.7321 216.62C31.7067 216.258 30.5447 215.824 29.5198 215.391C31.7705 217.037 32.4458 218.669 31.6834 220.148L28.6799 218.355C29.4292 219.068 29.9032 219.992 30.0342 220.983C29.9598 221.973 29.6803 222.89 29.1957 223.735L26.4122 219.538L22.7556 212.434L24.8414 218.747C26.268 220.74 27.0109 222.514 27.1394 223.93C27.2679 225.346 26.7833 226.191 25.5495 226.322C23.1038 222.906 21.6095 220.771 21.0658 220.059C19.6429 217.43 18.4261 214.732 17.4155 211.894C16.9458 210.263 16.8325 206.301 17.0767 199.866C17.0158 198.592 17.0238 197.248 17.1685 195.976C18.3315 184.809 12.61 167.925 14.3588 150.468C14.6532 147.075 15.427 143.686 16.6106 140.512C16.902 137.615 18.569 133.809 18.4468 131.332C17.3678 105.645 23.23 110.504 22.9609 98.2642C22.6918 86.0243 21.9871 77.8835 26.5438 71.9796C30.0653 67.3404 38.0275 64.7189 42.8932 64.406C43.8569 63.6359 44.9567 63.0085 46.0561 62.4518C49.285 60.9226 52.65 59.536 56.0141 58.2908C60.0888 52.8074 59.3433 51.4571 59.4015 41.7665C59.4604 31.9343 83.4093 36.5205 83.3843 40.6939C83.361 44.5843 81.4584 53.4106 86.2288 57.5534" fill="url(#paint0_linear_111_4416)"/>
<path d="M123.807 211.958L124.529 218.049" stroke="#F29353" stroke-width="1.14" stroke-linecap="round"/>
<path d="M127.227 211.984L127.461 219.274L126.486 220.893" stroke="#F29353" stroke-width="1.14" stroke-linecap="round"/>
<path d="M131.208 209.892L131.029 216.965L129.703 220.067" stroke="#F29353" stroke-width="1.14" stroke-linecap="round"/>
<path d="M120.079 208.746L119.345 205.487L118.576 208.168" stroke="#F29353" stroke-width="1.14" stroke-linecap="round"/>
<path d="M120.193 191.624L119.423 194.376" stroke="#F29353" stroke-width="1.14" stroke-linecap="round"/>
<path d="M105.088 100.649C104.801 102.84 105.539 105.746 107.439 109.229" stroke="#EE8B48" stroke-width="1.14" stroke-linecap="round"/>
<path d="M116.077 133.922C114.696 135.891 113.656 138.074 113.026 140.402" stroke="#F29353" stroke-width="1.14" stroke-linecap="round"/>
<path d="M44.5391 279.241C43.5533 283.407 44.0126 286.736 45.8481 289.298C47.6835 291.86 48.6158 296.325 48.5077 302.692" stroke="#F08944" stroke-width="1.14" stroke-linecap="round"/>
<path d="M58.5624 278.919C59.6302 283.81 59.3337 287.345 57.6051 289.383" stroke="#F08944" stroke-width="1.14" stroke-linecap="round"/>
<path d="M44.8442 107.779C41.3698 105.559 39.8314 99.8224 38.7377 99.7426C37.644 99.6627 36.1188 103.113 33.917 105.355" stroke="#EE8B48" stroke-width="1.14" stroke-linecap="round"/>
<path d="M39.8102 103.356C39.8559 107.177 39.0784 110.92 37.6162 114.375" stroke="#EE8B48" stroke-width="1.14" stroke-linecap="round"/>
<path d="M40.5623 102.369C43.1929 108.241 47.8993 109.972 56.0335 110.039C64.1677 110.107 70.3251 109.243 70.8434 102.622" stroke="#EE8B48" stroke-width="1.14" stroke-linecap="round"/>
<path d="M98.826 108.164C102.327 106.002 103.934 100.292 105.028 100.231C106.123 100.169 107.607 103.644 109.781 105.923" stroke="#EE8B48" stroke-width="1.14" stroke-linecap="round"/>
<path d="M103.168 102.86C100.467 108.687 95.7406 110.339 87.6064 110.271C79.4722 110.203 73.3258 109.235 72.8871 102.607" stroke="#EE8B48" stroke-width="1.14" stroke-linecap="round"/>
<path d="M84.4839 56.0577C84.7463 58.0408 85.2148 59.9549 85.889 61.8707" stroke="#F89451" stroke-width="1.14" stroke-linecap="round"/>
<path d="M58.0359 56.6428C57.9574 58.2695 57.6728 59.8944 57.2512 61.4475" stroke="#F89451" stroke-width="1.14" stroke-linecap="round"/>
<path d="M93.2717 277.97C93.1092 282.213 93.9808 285.404 95.9554 287.472C97.93 289.54 99.3442 293.655 100.335 299.888" stroke="#F08944" stroke-width="1.14" stroke-linecap="round"/>
<path d="M107.226 278.782C107.813 283.81 107.175 287.201 105.242 289.095" stroke="#F08944" stroke-width="1.14" stroke-linecap="round"/>
<path fill-rule="evenodd" clip-rule="evenodd" d="M31.3636 387.738C32.163 391.492 35.2278 394.063 39.8751 395.164C44.5224 396.265 52.8734 395.983 55.4842 394.239C58.0949 392.494 63.1955 386.246 56.0679 376.217C58.0881 370.084 61.2628 365.516 55.8984 358.259C53.4724 363.54 45.9599 360.859 40.4299 358.549C39.1325 358.043 36.3291 369.401 35.4078 374.836C32.2176 382.09 30.233 382.073 31.3636 387.738Z" fill="#C6C6C6"/>
<path fill-rule="evenodd" clip-rule="evenodd" d="M43.4531 357.158C45.5823 355.834 48.3188 355.999 50.2939 357.642C50.8389 358.071 51.7187 359.775 53.0898 359.362C55.215 358.745 55.0228 356.481 55.7801 355.71C56.5374 354.939 58.6247 360.824 56.6766 366.321C54.7284 371.819 58.7172 380.266 58.7172 380.266C58.7172 380.266 60.6414 390.674 53.5223 390.966C51.4685 391.09 51.5451 389.677 45.6578 389.979C42.0981 390.16 42.8381 392.358 37.5118 390.333C32.1856 388.307 30.8436 383.701 31.8836 381.377C32.9929 378.912 35.0705 374.688 36.2589 370.386C36.4368 363.319 37.6965 358.522 39.9011 355.997C39.9614 357.411 40.9145 358.267 41.3935 358.272C42.8987 358.355 42.9032 357.578 43.4531 357.158Z" fill="#801F1F"/>
<path fill-rule="evenodd" clip-rule="evenodd" d="M40.8155 364.201L49.3508 367.456L42.4828 371.708L49.7859 375.023L41.571 375.518L49.5339 371.275L42.2997 367.89L50.3998 363.577L40.8155 364.201Z" stroke="white" stroke-width="1.07" stroke-linecap="round" stroke-linejoin="round"/>
<path fill-rule="evenodd" clip-rule="evenodd" d="M125.574 388.467C124.867 392.278 121.841 394.868 117.249 396.03C112.657 397.192 104.24 397.119 101.581 395.4C98.9212 393.751 93.6876 387.555 100.658 377.436C98.5038 371.337 95.2449 366.855 100.42 359.477C102.991 364.731 110.398 361.897 115.887 359.47C117.191 358.915 120.205 370.252 121.268 375.634C124.648 382.874 126.633 382.821 125.574 388.467Z" fill="#C6C6C6"/>
<path fill-rule="evenodd" clip-rule="evenodd" d="M112.888 358.097C110.705 356.805 107.966 357.064 106.04 358.744C105.49 359.235 104.659 360.853 103.293 360.488C101.175 359.904 101.941 357.507 101.193 356.794C100.444 356.08 97.8087 362.066 99.83 367.527C101.92 372.989 98.1064 381.509 98.1064 381.509C98.1064 381.509 96.4033 391.957 103.588 392.09C105.641 392.108 105.581 390.764 111.396 390.956C114.955 391.057 114.257 393.313 119.608 391.168C124.958 389.023 126.08 384.367 124.998 382.095C123.849 379.611 121.684 375.422 120.34 371.169C119.97 364.096 118.629 359.277 116.385 356.854C116.308 358.268 115.413 359.179 115.003 359.175C113.496 359.304 113.433 358.526 112.888 358.097Z" fill="#801F1F"/>
<path fill-rule="evenodd" clip-rule="evenodd" d="M115.658 365.117L107.221 368.507L114.108 372.667L106.903 376.139L115.181 376.493L107.062 372.323L114.267 368.851L106.08 364.68L115.658 365.117Z" stroke="white" stroke-width="1.07" stroke-linecap="round" stroke-linejoin="round"/>
<g opacity="0.42" filter="url(#filter0_f_111_4416)">
<path fill-rule="evenodd" clip-rule="evenodd" d="M60.6321 44.3435C60.8119 48.5868 61.6359 59.4807 65.9304 61.991C70.225 64.5013 75.2872 64.4731 77.9009 62.0914C80.5146 59.7096 83.0946 51.5306 83.2117 43.4017C83.9287 37.8935 58.8858 38.9561 60.6321 44.3435Z" fill="#915D2E" fill-opacity="0.7"/>
</g>
<path fill-rule="evenodd" clip-rule="evenodd" d="M58.239 45.7124C58.4862 50.4501 63.927 56.7891 66.1751 58.7175C68.4233 60.6459 74.3062 61.4053 76.922 58.8136C79.5378 56.2218 81.8823 53.2036 82.4398 51.4416C82.9973 49.6796 84.7304 45.8078 85.0106 44.6795C86.7709 48.1584 93.4988 32.5279 87.6056 33.6061C87.6291 29.4363 88.0969 19.2628 82.6462 14.6906C77.1955 10.1185 70.081 9.27747 62.5995 12.8152C55.1181 16.353 53.7062 23.9736 55.3603 34.1661C56.7273 34.5317 50.2328 32.9894 52.7266 39.9382C54.4176 43.5579 54.3994 46.809 58.239 45.7124Z" fill="#FFD4AB"/>
<path d="M70.7355 58.4336L72.3073 58.4451" stroke="#EA833E" stroke-width="1.14" stroke-linecap="round"/>
<path d="M88.3845 36.0638C85.9796 37.8112 84.7403 39.1441 84.7344 40.1338" stroke="#EA833E" stroke-width="1.14" stroke-linecap="round"/>
<path d="M86.5912 38.4548L86.581 40.1523L84.716 42.8246" stroke="#EA833E" stroke-width="1.14" stroke-linecap="round"/>
<path d="M53.6575 36.9373C55.0229 37.3729 56.1106 38.5131 56.5125 39.9303" stroke="#EA833E" stroke-width="1.14" stroke-linecap="round"/>
<path d="M55.0143 38.2212L55.3401 40.9824L57.042 42.6234" stroke="#EA833E" stroke-width="1.14" stroke-linecap="round"/>
<path opacity="0.75" fill-rule="evenodd" clip-rule="evenodd" d="M96.6959 163.046C87.2477 169.454 47.6038 168.336 43.1374 162.937C40.264 151.155 44.8595 144.069 45.2983 134.354C45.5054 129.77 42.5625 125.648 41.6509 118.808C40.8279 115.102 40.4244 111.963 40.4404 109.391C44.8975 104.516 47.1579 96.936 47.2216 86.6524C47.3136 71.7846 44.601 68.1358 42.9882 64.2229C42.6112 63.5107 44.5584 62.3399 46.7116 61.4625C49.1947 60.4506 51.8341 58.9897 52.1863 59.5683C52.178 60.9049 57.2438 80.1999 71.1278 80.3125C85.0118 80.4251 89.36 77.1689 93.1945 59.767C93.0392 59.2653 94.8762 59.7006 97.9504 60.5761C101.025 61.4516 103.371 62.2812 102.756 62.676C101.798 63.0789 101.418 65.9781 99.0225 84.3585C96.6268 102.739 101.576 102.887 104.337 106.269C104.4 109.034 103.992 112.24 103.115 115.886C98.6239 126.4 97.0514 134.833 98.3972 141.185C100.416 150.713 100.677 159.149 96.6959 163.046Z" fill="#FFFAF9"/>
<path opacity="0.85" fill-rule="evenodd" clip-rule="evenodd" d="M72.7758 230.524L73.44 223.811L75.1644 223.798L75.797 230.548C89.5061 230.711 99.1601 229.966 104.759 228.315C109.184 227.01 111.989 223.483 113.175 217.735C110.235 200.612 107.482 188.26 104.917 180.677C102.412 173.271 98.443 162.922 96.7335 162.908C71.3037 170.043 47.709 165.482 43.3265 162.899C41.931 162.789 41.3068 167.734 40.3587 172.031C38.8875 178.7 35.6734 207.743 35.1575 219.432C35.1048 227.946 47.6442 231.643 72.7758 230.524Z" fill="#801F1F"/>
<path d="M86.3263 33.6123C86.5321 31.6865 87.0097 30.3646 85.9846 26.1822C84.7175 22.666 81.9226 20.2276 82.1524 15.9822C79.9747 14.2167 75.2772 17.5773 70.5755 18.2612C65.8739 18.945 56.5975 16.3387 57.2809 24.1226C58.306 29.9293 56.8243 30.3207 57.2809 35.0276L55.5725 34.3199C54.2058 32.5509 51.5236 23.711 53.2171 14.2011C54.9106 4.69118 74.5923 -4.66021 83.7301 11.9613C92.755 9.2044 88.2467 31.4798 88.0349 33.6123H86.3263Z" fill="black"/>
<g filter="url(#filter1_d_111_4416)">
<path d="M118.547 71.4707C132.335 73.5517 141 76.5635 141 79.9138C141 86.1936 110.555 91.2844 73 91.2844C35.4446 91.2844 5 86.1936 5 79.9138C5 76.6954 12.9967 73.7893 25.8491 71.7207" stroke="#E95D5C" stroke-width="2" stroke-linecap="round"/>
</g>
<g filter="url(#filter2_d_111_4416)">
<path d="M98.525 128.789C106.562 130.87 111.613 133.882 111.613 137.232C111.613 143.512 93.8664 148.603 71.9749 148.603C50.0833 148.603 32.3367 143.512 32.3367 137.232C32.3367 134.014 36.9981 131.107 44.4899 129.039" stroke="#E95D5C" stroke-width="2" stroke-linecap="round"/>
</g>
<g filter="url(#filter3_d_111_4416)">
<path d="M107.787 188.938C118.11 191.019 124.598 194.031 124.598 197.381C124.598 203.661 101.803 208.752 73.6834 208.752C45.5641 208.752 22.7689 203.661 22.7689 197.381C22.7689 194.163 28.7564 191.256 38.3795 189.188" stroke="#E95D5C" stroke-width="2" stroke-linecap="round"/>
</g>
<defs>
<filter id="filter0_f_111_4416" x="56.5447" y="35.7523" width="30.6821" height="32.1235" filterUnits="userSpaceOnUse" color-interpolation-filters="sRGB">
<feFlood flood-opacity="0" result="BackgroundImageFix"/>
<feBlend mode="normal" in="SourceGraphic" in2="BackgroundImageFix" result="shape"/>
<feGaussianBlur stdDeviation="2" result="effect1_foregroundBlur_111_4416"/>
</filter>
<filter id="filter1_d_111_4416" x="0" y="70.4706" width="146" height="29.8138" filterUnits="userSpaceOnUse" color-interpolation-filters="sRGB">
<feFlood flood-opacity="0" result="BackgroundImageFix"/>
<feColorMatrix in="SourceAlpha" type="matrix" values="0 0 0 0 0 0 0 0 0 0 0 0 0 0 0 0 0 0 127 0" result="hardAlpha"/>
<feOffset dy="4"/>
<feGaussianBlur stdDeviation="2"/>
<feComposite in2="hardAlpha" operator="out"/>
<feColorMatrix type="matrix" values="0 0 0 0 0.913725 0 0 0 0 0.364706 0 0 0 0 0.360784 0 0 0 0.37 0"/>
<feBlend mode="normal" in2="BackgroundImageFix" result="effect1_dropShadow_111_4416"/>
<feBlend mode="normal" in="SourceGraphic" in2="effect1_dropShadow_111_4416" result="shape"/>
</filter>
<filter id="filter2_d_111_4416" x="27.3367" y="127.789" width="89.2764" height="29.814" filterUnits="userSpaceOnUse" color-interpolation-filters="sRGB">
<feFlood flood-opacity="0" result="BackgroundImageFix"/>
<feColorMatrix in="SourceAlpha" type="matrix" values="0 0 0 0 0 0 0 0 0 0 0 0 0 0 0 0 0 0 127 0" result="hardAlpha"/>
<feOffset dy="4"/>
<feGaussianBlur stdDeviation="2"/>
<feComposite in2="hardAlpha" operator="out"/>
<feColorMatrix type="matrix" values="0 0 0 0 0.913725 0 0 0 0 0.364706 0 0 0 0 0.360784 0 0 0 0.37 0"/>
<feBlend mode="normal" in2="BackgroundImageFix" result="effect1_dropShadow_111_4416"/>
<feBlend mode="normal" in="SourceGraphic" in2="effect1_dropShadow_111_4416" result="shape"/>
</filter>
<filter id="filter3_d_111_4416" x="17.7689" y="187.938" width="111.829" height="29.814" filterUnits="userSpaceOnUse" color-interpolation-filters="sRGB">
<feFlood flood-opacity="0" result="BackgroundImageFix"/>
<feColorMatrix in="SourceAlpha" type="matrix" values="0 0 0 0 0 0 0 0 0 0 0 0 0 0 0 0 0 0 127 0" result="hardAlpha"/>
<feOffset dy="4"/>
<feGaussianBlur stdDeviation="2"/>
<feComposite in2="hardAlpha" operator="out"/>
<feColorMatrix type="matrix" values="0 0 0 0 0.913725 0 0 0 0 0.364706 0 0 0 0 0.360784 0 0 0 0.37 0"/>
<feBlend mode="normal" in2="BackgroundImageFix" result="effect1_dropShadow_111_4416"/>
<feBlend mode="normal" in="SourceGraphic" in2="effect1_dropShadow_111_4416" result="shape"/>
</filter>
<linearGradient id="paint0_linear_111_4416" x1="74.0393" y1="-14.2527" x2="89.255" y2="457.296" gradientUnits="userSpaceOnUse">
<stop stop-color="#FFD6A7"/>
<stop offset="0.49" stop-color="#FFCFB0"/>
<stop offset="1" stop-color="#FFB783"/>
</linearGradient>
</defs>
</svg>
