<svg width="65" height="65" viewBox="0 0 65 65" fill="none" xmlns="http://www.w3.org/2000/svg">
<path d="M64.5935 30.4387C64.3356 29.7744 63.9489 29.1674 63.4555 28.6527L36.3609 1.59168C35.8557 1.08706 35.2559 0.686769 34.5957 0.413667C33.9356 0.140565 33.228 0 32.5135 0C31.0704 0 29.6865 0.572546 28.6661 1.59168C28.1608 2.09631 27.76 2.69539 27.4866 3.35472C27.2132 4.01404 27.0724 4.7207 27.0724 5.43435C27.0724 6.87563 27.6457 8.25788 28.6661 9.27702L46.5485 27.0832H5.41892C3.98173 27.0832 2.60341 27.6534 1.58717 28.6684C0.570921 29.6834 0 31.06 0 32.4954C0 33.9308 0.570921 35.3074 1.58717 36.3224C2.60341 37.3374 3.98173 37.9076 5.41892 37.9076H46.5485L28.6661 55.7137C28.1582 56.2169 27.755 56.8155 27.4799 57.475C27.2048 58.1345 27.0632 58.8419 27.0632 59.5564C27.0632 60.2709 27.2048 60.9783 27.4799 61.6378C27.755 62.2973 28.1582 62.8959 28.6661 63.3991C29.1698 63.9063 29.7692 64.309 30.4295 64.5838C31.0899 64.8585 31.7981 65 32.5135 65C33.2289 65 33.9372 64.8585 34.5975 64.5838C35.2578 64.309 35.8572 63.9063 36.3609 63.3991L63.4555 36.3381C63.9489 35.8233 64.3356 35.2164 64.5935 34.552C65.1355 33.2344 65.1355 31.7564 64.5935 30.4387Z" fill="#6B3030"/>
</svg>
