<svg width="125" height="397" viewBox="0 0 125 397" fill="none" xmlns="http://www.w3.org/2000/svg">
<path d="M55.1531 20.4473C57.0484 20.6912 57.0482 20.6924 57.0481 20.6936L57.0477 20.6961L57.0471 20.7013L57.0455 20.7126L57.0417 20.7389C57.0388 20.7581 57.0353 20.7807 57.0309 20.8065C57.0222 20.8581 57.0101 20.9227 56.9938 21.0001C56.9611 21.1548 56.9111 21.36 56.8356 21.613C56.6844 22.1194 56.4317 22.8147 56.0119 23.6778C55.5154 24.6988 54.7875 25.9499 53.7225 27.3975C58.5268 26.8752 62.616 24.8409 65.7303 22.6717C67.6954 21.3029 69.2412 19.9012 70.2924 18.8446C70.817 18.3174 71.2156 17.879 71.4788 17.5778C71.6103 17.4272 71.7078 17.3112 71.7701 17.2358C71.8013 17.1981 71.8236 17.1705 71.837 17.1539L71.85 17.1377L71.8503 17.1373L71.8508 17.1367L71.8513 17.136L71.8518 17.1353L74.8802 13.2737L75.2589 18.1695L73.3537 18.3169L75.2589 18.1696L75.2589 18.17L75.259 18.1716L75.2596 18.1783L75.2617 18.2052L75.27 18.3119L75.3026 18.7242C75.3311 19.0829 75.3729 19.603 75.426 20.2475C75.532 21.5369 75.6829 23.3232 75.8621 25.311C76.2215 29.2994 76.691 34.0551 77.1382 37.244C77.4284 39.3135 76.8938 41.8377 76.1201 44.2723C75.3257 46.7723 74.1854 49.4546 73.0259 51.9483C71.989 54.1786 70.917 56.2996 70.0388 58.0371C69.9334 58.2456 69.8308 58.4486 69.7314 58.6456C69.2836 59.5331 68.9067 60.2865 68.6227 60.8872C69.0314 61.0735 69.5457 61.2867 70.1571 61.5206C72.0671 62.2515 74.6923 63.0972 77.3913 63.8554C80.0925 64.6141 82.8094 65.2687 84.9049 65.6307C85.5316 65.739 86.0797 65.8169 86.5407 65.8651C86.4472 65.4882 86.3323 65.0552 86.1974 64.5693C85.7547 62.9744 85.1368 60.9494 84.4587 58.7275C84.3233 58.2839 84.1855 57.8325 84.0463 57.375C83.2153 54.6453 82.3377 51.7212 81.6398 49.0855C80.9524 46.4897 80.3995 44.0306 80.2757 42.2847C80.0101 38.5416 80.5963 35.3561 81.099 32.6238L81.1122 32.5522C81.631 29.7325 82.0154 27.5329 81.6564 25.3254C81.6295 25.1597 81.6032 24.9981 81.5776 24.8404C80.9465 20.958 80.7 19.4409 80.1617 17.7459C79.7269 16.377 79.112 14.9184 77.9424 12.1444C77.5915 11.3121 77.1907 10.3614 76.7299 9.25919C72.2836 4.89597 69.7098 3.1835 67.6169 2.46248C65.9012 1.87141 64.449 1.89349 62.1357 1.92868C61.5228 1.938 60.8494 1.94824 60.0947 1.94824C48.6737 1.94823 35.936 11.6159 36.7416 27.1441C37.2152 36.2738 36.6736 46.8155 35.4721 55.4996C34.8716 59.8393 34.0994 63.7674 33.187 66.8482C33.093 67.1656 32.9969 67.476 32.8988 67.7786C33.7962 67.3883 34.7951 66.9774 35.889 66.5605C40.4239 64.8325 46.6077 62.9974 53.9686 62.1243C50.9694 58.5931 48.6835 54.4879 47.7062 48.4185C47.5023 47.1523 46.9991 44.8848 46.4539 42.4279C46.3112 41.7849 46.1656 41.1289 46.0218 40.4745C45.6811 38.9245 45.3541 37.3993 45.1154 36.1403C44.8943 34.9736 44.6976 33.7909 44.7201 33.0781C44.869 28.3564 47.3436 24.7537 49.6178 22.4156C50.7652 21.2359 51.8994 20.3376 52.748 19.7325C53.1737 19.429 53.5315 19.1965 53.7884 19.0368C53.9169 18.9569 54.0205 18.895 54.0951 18.8513C54.1325 18.8295 54.1625 18.8122 54.1849 18.7995L54.2126 18.7838L54.222 18.7786L54.2256 18.7766L54.2271 18.7758C54.2277 18.7754 54.2284 18.7751 55.1531 20.4473ZM55.1531 20.4473L57.0484 20.6912L57.5299 16.9494L54.2284 18.7751L55.1531 20.4473ZM87.8364 65.9036C87.8332 65.9043 87.8293 65.9049 87.8246 65.9057C87.863 65.8948 87.8715 65.8968 87.8364 65.9036Z" fill="black" stroke="black" stroke-width="3.82184"/>
<path d="M80.4036 63.2339L97.2573 66.1695C104.447 68.9985 101.003 72.1794 104.45 90.9151C104.505 93.0365 104.452 107.611 104.453 109.65C105.328 117.971 104.455 124.144 105.33 130.153C105.713 132.784 105.297 131.608 107.62 136.707C108.792 146.061 108.154 146.605 112.103 168.875C112.792 172.764 113.577 177.17 114.151 180.705C114.496 182.826 116.349 182.93 117.092 185.056C117.836 187.183 120.723 198.233 120.788 198.87C120.919 199.861 120.912 200.851 120.768 201.769C120.196 204.875 119.619 208.689 118.377 209.033C117.675 210.937 116.564 212.201 115.873 212.549C114.204 214.729 113.713 216.068 113.026 215.781C112.339 215.493 112.069 214.642 112.349 213.937C112.349 213.937 112.349 213.937 112.35 213.867C112.632 212.95 112.282 213.654 111.724 214.71C111.027 215.978 110.397 217.316 109.913 217.596C107.924 216.379 109.25 213.773 110.435 211.802C111.131 210.676 110.088 212.082 108.834 214.194C107.719 216.095 106.605 217.783 106.331 217.569C103.725 215.712 107.07 210.151 107.626 209.519C107.569 207.68 107.581 205.913 107.662 204.075C107.119 202.869 106.72 200.816 106.465 197.774C106.181 198.974 105.76 200.102 105.339 201.23C104.714 201.932 106.395 208.166 101.71 210.96C101.727 208.556 101.749 205.233 101.764 202.971C101.777 201.133 102.36 196.4 102.373 194.562C102.385 192.724 106.413 185.118 106.621 184.908C106.778 182.01 107.874 180.673 106.62 178.229C105.903 174.341 105.266 174.411 105.336 174.341C102.369 166.753 103.786 171.664 102.369 167.27C100.952 162.876 96.9643 156.501 95.91 148.37C95.91 148.37 95.9099 147.663 95.2199 139.329C95.5639 135.998 92.3475 128.221 91.7532 124.143C87.2711 93.3881 91.7469 75.9037 88.995 105.76C87.9963 116.596 84.2858 118.232 83.1617 126.098C82.7493 128.985 80.6458 136.703 83.1651 151.359C83.8473 155.329 84.5232 153.481 86.849 163.025C89.5664 168.701 100.339 194.668 102.044 217.588C100.4 242.047 101.689 253.359 101.691 269.691C106.339 281.77 106.342 298.606 105.129 321.611C103.761 330.297 105.424 349.186 106.943 358.813C108.463 368.439 98.0596 368.433 94.4275 365.578C92.3718 363.937 90.4759 359.034 91.9451 355.722C91.8557 348.581 91.0026 325.227 85.597 309.562C82.7601 301.198 81.6479 289.188 82.0426 281.767C81.9766 281.342 82.1084 279.939 82.0424 279.514C81.2429 275.478 81.4672 275.188 81.5519 272.855C79.3205 266.617 76.0825 258.605 71.4655 246.285C69.66 238.211 66.4843 229.131 64.8309 218.938L63.1091 218.855C62.4709 221.537 61.97 224.29 61.6063 227.115C61.0805 233.545 55.9639 243.101 50.8205 273.425C50.7928 277.525 52.0295 278.029 51.5137 282.975C51.3659 284.458 51.1496 285.871 50.7951 287.353C52.802 296.205 49.3529 305.265 46.2441 322.989C44.26 334.3 43.1641 345.967 44.5643 352.836C46.334 356.03 45.458 363.306 43.5854 365.13C40.1882 368.287 27.1814 366.14 28.8334 356.184C30.4855 346.227 31.9456 331.36 30.1385 317.685C28.6437 306.372 27.6393 297.181 28.6406 282.937C28.644 282.442 28.6473 281.947 28.6512 281.381C28.6679 278.907 28.7521 276.645 28.9043 274.525C27.7685 269.285 27.8122 264.671 26.3402 248.046C25.5709 239.556 25.0537 232.713 24.9012 224.722C25.6281 198.781 30.0313 167.779 32.3464 161.645L32.7692 161.645C33.9127 158.324 32.8731 156.301 35.6282 151.353C36.3156 139.321 36.2002 127.462 34.9357 124.135C21.8413 89.68 34.058 79.9745 28.3884 106.295C26.6684 124.134 24.8884 127.504 23.5694 133.16C24.7987 157.551 17.7431 167.049 15.1361 185.765C15.4782 186.121 15.7513 186.477 16.0245 186.832C18.9601 190.813 19.4069 196.048 17.5037 202.397C18.4538 204.525 19.1346 205.732 19.5451 206.159C20.7095 207.158 21.6783 206.529 22.0013 209.713C20.9703 209.351 19.802 208.919 18.7715 208.487C21.0339 210.13 21.7118 211.761 20.9439 213.24L17.9246 211.45C18.6777 212.162 19.1537 213.085 19.2848 214.076C19.2092 215.065 18.9274 215.982 18.4394 216.827L15.643 212.635L11.9708 205.538L14.0638 211.845C15.4971 213.836 16.243 215.609 16.3712 217.024C16.4994 218.439 16.0114 219.283 14.7704 219.416C12.3132 216.004 10.812 213.872 10.2656 213.161C8.83662 210.534 7.61474 207.838 6.60051 205.003C6.12928 203.373 6.01831 199.413 6.26857 192.981C6.20829 191.708 6.21739 190.365 6.3638 189.094C7.54173 177.932 8.48795 184.897 10.2598 168.861C10.2582 156.489 10.9454 143.056 10.2556 136.693C10.5508 133.796 11.2888 129.978 11.1677 127.502C11.1669 121.14 12.2195 115.674 14.9529 97.456C17.6863 79.2378 17.6868 82.419 18.719 73.2283C22.2641 68.5884 23.2203 67.6682 28.0447 66.7687C39.4119 64.6494 43.2064 64.1393 45.242 63.6878C47.3087 63.2293 51.4619 60.6979 51.4619 60.6979C52.4686 54.0797 48.8873 50.2703 48.9529 40.5848C49.0194 30.758 73.102 35.3199 73.0738 39.491C73.0475 43.3793 67.6799 56.5647 72.4746 60.7008" fill="url(#paint0_linear_81_3450)"/>
<path d="M61.5011 105.611C62.3503 111.119 76.0773 122.007 85.6656 110.998C95.2539 99.9893 85.4766 87.5729 90.2743 89.106" stroke="#EE8B48" stroke-width="1.14" stroke-linecap="round"/>
<path d="M110.561 202.395L111.228 208.289" stroke="#F29353" stroke-width="1.14" stroke-linecap="round"/>
<path d="M113.768 202.418L113.978 209.473L113.068 211.042" stroke="#F29353" stroke-width="1.14" stroke-linecap="round"/>
<path d="M117.503 200.392L117.328 207.239L116.088 210.243" stroke="#F29353" stroke-width="1.14" stroke-linecap="round"/>
<path d="M107.056 199.287L106.372 196.132L105.649 198.729" stroke="#F29353" stroke-width="1.14" stroke-linecap="round"/>
<path d="M107.17 182.715L106.446 185.381" stroke="#F29353" stroke-width="1.14" stroke-linecap="round"/>
<path d="M59.4061 146.744C59.0937 146.939 58.8589 147.156 58.7174 147.388" stroke="#F29353" stroke-width="1.14" stroke-linecap="round"/>
<path d="M33.8384 277.975C32.8455 282.14 33.3046 285.466 35.1465 288.025C36.9883 290.584 37.9217 295.045 37.8089 301.407" stroke="#F08944" stroke-width="1.14" stroke-linecap="round"/>
<path d="M43.9107 277.654C44.9789 282.54 44.2691 284.696 42.5333 286.734" stroke="#F08944" stroke-width="1.14" stroke-linecap="round"/>
<path d="M58.0992 105.408C57.2506 110.915 43.5235 121.799 33.9326 110.791C24.3417 99.7822 34.1185 87.369 29.3205 88.9012" stroke="#EE8B48" stroke-width="1.14" stroke-linecap="round"/>
<path d="M59.406 69.213C56.7736 68.6719 46.2558 68.1871 30.4812 67.7643" stroke="#F89451" stroke-width="1.14" stroke-linecap="round"/>
<path d="M84.9503 275.647C84.7838 279.888 86.199 283.639 87.6419 285.141C89.6259 287.206 90.0967 288.989 91.088 295.218" stroke="#F08944" stroke-width="1.14" stroke-linecap="round"/>
<path d="M96.9953 277.517C97.5815 282.542 96.9383 285.93 94.9959 287.825" stroke="#F08944" stroke-width="1.14" stroke-linecap="round"/>
<path fill-rule="evenodd" clip-rule="evenodd" d="M20.5537 387.818C21.3554 391.571 24.4386 394.139 29.116 395.234C33.7934 396.33 42.2003 396.04 44.8299 394.293C47.4594 392.545 52.5991 386.293 45.4319 376.272C47.4706 370.137 50.6701 365.567 45.2757 358.316C42.8293 363.599 35.2689 360.926 29.7039 358.622C28.3982 358.118 25.567 369.477 24.6353 374.913C21.4179 382.17 19.4201 382.155 20.5537 387.818Z" fill="#C6C6C6"/>
<path fill-rule="evenodd" clip-rule="evenodd" d="M32.7454 357.231C34.8899 355.904 37.6445 356.066 39.6315 357.707C40.1798 358.135 41.0641 359.838 42.4447 359.425C44.5845 358.805 44.3929 356.541 45.1558 355.769C45.9188 354.998 48.0153 360.881 46.0498 366.379C44.0842 371.878 48.0928 380.32 48.0928 380.32C48.0928 380.32 50.0215 390.726 42.8546 391.026C40.787 391.151 40.8653 389.738 34.9385 390.047C31.3548 390.232 32.098 392.429 26.7378 390.409C21.3776 388.389 20.0304 383.784 21.0792 381.46C22.1979 378.994 24.2928 374.768 25.4925 370.465C25.6773 363.398 26.9493 358.601 29.1706 356.073C29.2301 357.487 30.1889 358.342 30.6712 358.346C32.1863 358.428 32.1914 357.651 32.7454 357.231Z" fill="#801F1F"/>
<path fill-rule="evenodd" clip-rule="evenodd" d="M30.0815 364.279L38.6715 367.524L31.754 371.784L39.1034 375.091L30.833 375.594L38.8528 371.343L31.5727 367.966L39.7306 363.645L30.0815 364.279Z" stroke="white" stroke-width="1.07" stroke-linecap="round" stroke-linejoin="round"/>
<path fill-rule="evenodd" clip-rule="evenodd" d="M115.461 388.516C114.747 392.328 111.698 394.921 107.075 396.087C102.451 397.254 93.9778 397.19 91.3024 395.474C88.6265 393.828 83.3629 387.638 90.3884 377.512C88.2243 371.416 84.9473 366.938 90.1633 359.555C92.7463 364.806 100.206 361.964 105.733 359.531C107.046 358.976 110.071 370.309 111.137 375.689C114.534 382.925 116.532 382.869 115.461 388.516Z" fill="#C6C6C6"/>
<path fill-rule="evenodd" clip-rule="evenodd" d="M102.712 358.165C100.516 356.876 97.7585 357.138 95.8183 358.82C95.2639 359.31 94.4264 360.93 93.051 360.566C90.9192 359.984 91.6929 357.587 90.9399 356.874C90.1868 356.162 87.529 362.15 89.5595 367.608C91.6589 373.067 87.8132 381.591 87.8132 381.591C87.8132 381.591 86.0903 392.04 93.3232 392.166C95.3899 392.181 95.3299 390.838 101.185 391.023C104.766 391.121 104.062 393.378 109.45 391.227C114.838 389.076 115.971 384.42 114.884 382.149C113.73 379.667 111.553 375.48 110.203 371.228C109.837 364.156 108.491 359.339 106.234 356.919C106.155 358.332 105.254 359.244 104.84 359.241C103.324 359.371 103.26 358.593 102.712 358.165Z" fill="#801F1F"/>
<path fill-rule="evenodd" clip-rule="evenodd" d="M105.491 365.183L96.9948 368.583L103.925 372.735L96.6685 376.215L105.002 376.56L96.8317 372.399L104.088 368.919L95.8491 364.757L105.491 365.183Z" stroke="white" stroke-width="1.07" stroke-linecap="round" stroke-linejoin="round"/>
<path d="M63.5381 69.2058C66.1704 68.6677 76.6882 68.1881 92.4628 67.7715" stroke="#F89451" stroke-width="1.14" stroke-linecap="round"/>
<path d="M102.14 131.195L101.416 133.86" stroke="#F29353" stroke-width="1.14" stroke-linecap="round"/>
<path d="M13.6697 134.025L12.5755 136.688" stroke="#F29353" stroke-width="1.14" stroke-linecap="round"/>
<g opacity="0.42" filter="url(#filter0_f_81_3450)">
<path fill-rule="evenodd" clip-rule="evenodd" d="M50.0561 41.8664C50.234 46.1093 51.0557 57.0024 55.3781 59.5087C59.7006 62.0151 64.7979 61.9822 67.4315 59.5981C70.065 57.214 72.669 49.0327 72.7929 40.9038C73.519 35.395 48.3017 36.4806 50.0561 41.8664Z" fill="#915D2E" fill-opacity="0.7"/>
</g>
<path fill-rule="evenodd" clip-rule="evenodd" d="M47.6361 43.2548C47.8808 47.9923 53.3518 54.325 55.613 56.2508C57.8743 58.1766 63.7951 58.929 66.4304 56.334C69.0657 53.7391 71.4282 50.718 71.9909 48.9553C72.5537 47.1926 74.3015 43.3186 74.5845 42.1898C76.3533 45.6668 83.1391 30.0278 77.2063 31.1131C77.2335 26.9431 77.7133 16.7687 72.2308 12.203C66.7483 7.63722 59.5877 6.80465 52.054 10.3514C44.5203 13.8982 43.0924 21.5208 44.7485 31.7116C46.1242 32.0756 39.5884 30.541 42.0925 37.487C43.7915 41.1048 43.7702 44.356 47.6361 43.2548Z" fill="#FFD4AB"/>
<path d="M74.5553 42.7342C74.7618 40.8107 77.1264 31.0097 76.0923 26.8317C74.8148 23.3191 72.4823 21.3709 71.7937 20.8172C69.5998 19.0529 65.3045 17.5207 60.5694 18.2017C55.8343 18.8828 60.6131 17.2152 49.4248 24.6952C48.2171 31.7627 46.7311 48.6183 47.1928 53.3198L45.4649 34.2354C44.0876 32.4678 41.3829 23.6371 43.0849 14.139C44.7869 4.64093 64.6063 -4.69114 73.8159 11.9148C82.9046 9.16503 76.8292 31.0622 76.6167 33.1922L74.5553 42.7342Z" fill="black"/>
<path d="M78.0082 33.5865C75.5855 35.3359 74.3367 36.6699 74.33 37.6596" stroke="#EA833E" stroke-width="1.14" stroke-linecap="round"/>
<path d="M76.2011 35.977L76.1896 37.6737L74.3114 40.3464" stroke="#EA833E" stroke-width="1.14" stroke-linecap="round"/>
<path d="M43.0157 34.4625C44.3904 34.8969 45.4847 36.0361 45.8884 37.453" stroke="#EA833E" stroke-width="1.14" stroke-linecap="round"/>
<path d="M44.3841 35.7451L44.7098 38.5048L46.421 40.1436" stroke="#EA833E" stroke-width="1.14" stroke-linecap="round"/>
<path opacity="0.75" fill-rule="evenodd" clip-rule="evenodd" d="M87.2826 165.114C77.7679 171.526 36.2635 170.507 31.7713 165.114C31.9557 153.565 36.202 146.443 36.202 137.187C36.4135 132.604 35.1472 128.114 34.2341 121.279C31.9557 117.743 29.4305 104.17 29.4483 101.599C29.4483 95.5896 29.3609 96.1893 31.7713 87.3516C36.2064 71.0901 33.5765 71.1783 31.9557 67.2683C31.5767 66.5566 33.5375 65.3848 35.7055 64.5061C38.2057 63.4926 40.8635 62.0302 41.2176 62.6083C41.2084 63.9444 46.2947 83.2275 60.2701 83.3292C74.2454 83.4308 78.6245 80.1725 82.4959 62.7746C82.3399 62.2733 84.1888 62.7069 87.2826 63.5796C90.3764 64.4524 92.7383 65.2798 92.1185 65.675C91.1544 66.0785 90.7696 68.9767 88.3458 87.3516C90.537 106.361 90.2691 103.18 89.5039 106.715C88.8153 109.897 86.8367 115.799 85.9512 119.444C81.4237 129.957 81.0159 136.674 82.7339 144.61C84.7999 154.155 87.2826 157.395 87.2826 165.114Z" fill="#FFFAF9"/>
<path opacity="0.85" fill-rule="evenodd" clip-rule="evenodd" d="M62.2574 229.333L62.9309 222.619L64.6676 222.605L65.3001 229.355C79.1069 229.506 88.8302 228.754 94.47 227.098C98.9274 225.79 101.755 222.261 102.953 216.512C101.76 199.77 99.1733 186.494 96.595 178.913C94.0767 171.509 88.1529 161.709 86.4313 161.697C60.8153 168.851 37.0555 164.309 32.6435 161.73C31.238 161.62 28.6843 168.605 27.7266 172.903C26.2404 179.573 24.1218 206.463 23.5945 218.153C23.5357 226.667 36.9459 230.472 62.2574 229.333Z" fill="#801F1F"/>
<g filter="url(#filter1_d_81_3450)">
<path d="M100.561 68.2644C112.081 69.898 119.322 72.2625 119.322 74.8926C119.322 79.8224 93.884 83.8188 62.5051 83.8188C31.1263 83.8188 5.68869 79.8224 5.68869 74.8926C5.68869 72.366 12.3703 70.0845 23.1088 68.4606" stroke="#E95D5C" stroke-width="2" stroke-linecap="round"/>
</g>
<g filter="url(#filter2_d_81_3450)">
<path d="M83.2793 136.845C90.6102 138.33 95.2176 140.48 95.2176 142.871C95.2176 147.353 79.03 150.986 59.0617 150.986C39.0933 150.986 22.9058 147.353 22.9058 142.871C22.9058 140.574 27.1577 138.5 33.9913 137.024" stroke="#E95D5C" stroke-width="2" stroke-linecap="round"/>
</g>
<g filter="url(#filter3_d_81_3450)">
<path d="M99.5186 187.044C110.41 188.826 117.255 191.405 117.255 194.274C117.255 199.652 93.2054 204.012 63.5381 204.012C33.8709 204.012 9.82079 199.652 9.82079 194.274C9.82079 191.518 16.1379 189.029 26.2907 187.258" stroke="#E95D5C" stroke-width="2" stroke-linecap="round"/>
</g>
<defs>
<filter id="filter0_f_81_3450" x="45.9686" y="33.2638" width="30.8397" height="32.1235" filterUnits="userSpaceOnUse" color-interpolation-filters="sRGB">
<feFlood flood-opacity="0" result="BackgroundImageFix"/>
<feBlend mode="normal" in="SourceGraphic" in2="BackgroundImageFix" result="shape"/>
<feGaussianBlur stdDeviation="2" result="effect1_foregroundBlur_81_3450"/>
</filter>
<filter id="filter1_d_81_3450" x="0.68869" y="67.2643" width="123.633" height="25.5546" filterUnits="userSpaceOnUse" color-interpolation-filters="sRGB">
<feFlood flood-opacity="0" result="BackgroundImageFix"/>
<feColorMatrix in="SourceAlpha" type="matrix" values="0 0 0 0 0 0 0 0 0 0 0 0 0 0 0 0 0 0 127 0" result="hardAlpha"/>
<feOffset dy="4"/>
<feGaussianBlur stdDeviation="2"/>
<feComposite in2="hardAlpha" operator="out"/>
<feColorMatrix type="matrix" values="0 0 0 0 0.913725 0 0 0 0 0.364706 0 0 0 0 0.360784 0 0 0 0.37 0"/>
<feBlend mode="normal" in2="BackgroundImageFix" result="effect1_dropShadow_81_3450"/>
<feBlend mode="normal" in="SourceGraphic" in2="effect1_dropShadow_81_3450" result="shape"/>
</filter>
<filter id="filter2_d_81_3450" x="17.9058" y="135.845" width="82.3118" height="24.1406" filterUnits="userSpaceOnUse" color-interpolation-filters="sRGB">
<feFlood flood-opacity="0" result="BackgroundImageFix"/>
<feColorMatrix in="SourceAlpha" type="matrix" values="0 0 0 0 0 0 0 0 0 0 0 0 0 0 0 0 0 0 127 0" result="hardAlpha"/>
<feOffset dy="4"/>
<feGaussianBlur stdDeviation="2"/>
<feComposite in2="hardAlpha" operator="out"/>
<feColorMatrix type="matrix" values="0 0 0 0 0.913725 0 0 0 0 0.364706 0 0 0 0 0.360784 0 0 0 0.37 0"/>
<feBlend mode="normal" in2="BackgroundImageFix" result="effect1_dropShadow_81_3450"/>
<feBlend mode="normal" in="SourceGraphic" in2="effect1_dropShadow_81_3450" result="shape"/>
</filter>
<filter id="filter3_d_81_3450" x="4.82079" y="186.044" width="117.435" height="26.9686" filterUnits="userSpaceOnUse" color-interpolation-filters="sRGB">
<feFlood flood-opacity="0" result="BackgroundImageFix"/>
<feColorMatrix in="SourceAlpha" type="matrix" values="0 0 0 0 0 0 0 0 0 0 0 0 0 0 0 0 0 0 127 0" result="hardAlpha"/>
<feOffset dy="4"/>
<feGaussianBlur stdDeviation="2"/>
<feComposite in2="hardAlpha" operator="out"/>
<feColorMatrix type="matrix" values="0 0 0 0 0.913725 0 0 0 0 0.364706 0 0 0 0 0.360784 0 0 0 0.37 0"/>
<feBlend mode="normal" in2="BackgroundImageFix" result="effect1_dropShadow_81_3450"/>
<feBlend mode="normal" in="SourceGraphic" in2="effect1_dropShadow_81_3450" result="shape"/>
</filter>
<linearGradient id="paint0_linear_81_3450" x1="65.0028" y1="-15.1289" x2="80.5409" y2="456.132" gradientUnits="userSpaceOnUse">
<stop stop-color="#FFD6A7"/>
<stop offset="0.49" stop-color="#FFCFB0"/>
<stop offset="1" stop-color="#FFB783"/>
</linearGradient>
</defs>
</svg>
